name Walk4.mot
datacolumns 19
datarows 17
range 1.61000000 1.69000000
endheader

                time	   L_ground_force_vx	   L_ground_force_vy	   L_ground_force_vz	   L_ground_force_px	   L_ground_force_py	   L_ground_force_pz	   R_ground_force_vx	   R_ground_force_vy	   R_ground_force_vz	   R_ground_force_px	   R_ground_force_py	   R_ground_force_pz	   L_ground_torque_x	   L_ground_torque_y	   L_ground_torque_z	   R_ground_torque_x	   R_ground_torque_y	   R_ground_torque_z	
          1.61000000	         21.52218824	        544.96845408	         37.08160209	         -0.30311085	          0.00000000	         -0.08076375	         -0.00000000	          0.00000000	         -0.00000000	          0.00000000	          0.00000000	          0.00000000	          0.00000000	          0.61286594	          0.00000000	          0.00000000	          0.00000000	          0.00000000	
          1.61500000	         24.08112183	        550.48790864	         38.03851216	         -0.30230008	          0.00000000	         -0.08105829	         -0.00000000	          0.00000000	         -0.00000000	          0.00000000	          0.00000000	          0.00000000	          0.00000000	          0.64208164	          0.00000000	          0.00000000	          0.00000000	          0.00000000	
          1.62000000	         26.45329255	        556.55142584	         38.88493122	         -0.30154476	          0.00000000	         -0.08119969	          0.00000000	          0.00000000	          0.00000000	         -0.00000000	          0.00000000	         -0.00000000	          0.00000000	          0.64460369	          0.00000000	          0.00000000	         -0.00000000	          0.00000000	
          1.62500000	         28.67620300	        563.14298786	         39.73212650	         -0.30072284	          0.00000000	         -0.08140848	          0.00000000	         -0.00000000	          0.00000000	         -0.00000000	          0.00000000	         -0.00000000	          0.00000000	          0.62152633	          0.00000000	          0.00000000	         -0.00000000	          0.00000000	
          1.63000000	         30.78740880	        570.21330322	         40.50257892	         -0.29992281	          0.00000000	         -0.08164010	          0.00000000	         -0.00000000	         -0.00000000	         -0.00000000	          0.00000000	         -0.00000000	          0.00000000	          0.59435975	          0.00000000	          0.00000000	         -0.00000000	          0.00000000	
          1.63500000	         32.93332790	        577.73050309	         41.09477114	         -0.29909538	          0.00000000	         -0.08177388	         -0.00000000	          0.00000000	         -0.00000000	          0.00000000	          0.00000000	          0.00000000	          0.00000000	          0.55856843	          0.00000000	          0.00000000	          0.00000000	          0.00000000	
          1.64000000	         35.19462706	        585.85239360	         41.53624913	         -0.29824963	          0.00000000	         -0.08182845	         -0.00000000	          0.00000000	         -0.00000000	          0.00000000	          0.00000000	          0.00000000	          0.00000000	          0.49528264	          0.00000000	          0.00000000	          0.00000000	          0.00000000	
          1.64500000	         37.53941558	        594.14320489	         41.97984614	         -0.29750317	          0.00000000	         -0.08205262	         -0.00000000	          0.00000000	          0.00000000	          0.00000000	          0.00000000	          0.00000000	          0.00000000	          0.40334684	          0.00000000	          0.00000000	          0.00000000	          0.00000000	
          1.65000000	         39.88462355	        602.18408468	         42.52276694	         -0.29678843	          0.00000000	         -0.08232132	          0.00000000	         -0.00000001	          0.00000000	         -0.00000000	          0.00000000	         -0.00000000	          0.00000000	          0.29002238	          0.00000000	          0.00000000	         -0.00000000	          0.00000000	
          1.65500000	         42.22048794	        610.61438012	         43.10206071	         -0.29604042	          0.00000000	         -0.08229243	          0.00000000	         -0.00000004	          0.00000000	         -0.00000000	          0.00000000	         -0.00000000	          0.00000000	          0.18734511	          0.00000000	          0.00000000	         -0.00000000	          0.00000000	
          1.66000000	         44.62325105	        619.40681995	         43.71503719	         -0.29536755	          0.00000000	         -0.08208810	          0.00000000	         -0.00000006	         -0.00000000	          0.00000000	          0.00000000	          0.00000000	          0.00000000	          0.07204070	          0.00000000	          0.00000000	         -0.00000000	          0.00000000	
          1.66500000	         47.27824488	        628.02521553	         44.36174849	         -0.29466019	          0.00000000	         -0.08198496	         -0.00000002	          0.00000023	         -0.00000002	          0.00000000	          0.00000000	          0.00000000	          0.00000000	         -0.03504367	          0.00000000	          0.00000000	          0.00000000	          0.00000000	
          1.67000000	         50.24019069	        636.49863965	         45.02957761	         -0.29390778	          0.00000000	         -0.08188425	         -0.00000007	          0.00000119	         -0.00000002	          0.00000000	          0.00000000	          0.00000000	          0.00000000	         -0.13046533	          0.00000000	          0.00000000	          0.00000000	          0.00000000	
          1.67500000	         53.42529068	        644.97266914	         45.71691576	         -0.29317216	          0.00000000	         -0.08177933	          0.00000003	          0.00000095	          0.00000011	         -0.00000000	          0.00000000	         -0.00000000	          0.00000000	         -0.22461927	          0.00000000	          0.00000000	         -0.00000000	          0.00000000	
          1.68000000	         56.66287606	        653.24677661	         46.50226237	         -0.29257935	          0.00000000	         -0.08170998	          0.00000070	         -0.00000850	          0.00000044	         -0.00000001	          0.00000000	         -0.00000001	          0.00000000	         -0.31349778	          0.00000000	          0.00000000	         -0.00000002	          0.00000000	
          1.68500000	         59.97769996	        660.66848257	         47.32720017	         -0.29205742	          0.00000000	         -0.08168026	          0.00000158	         -0.00003085	          0.00000011	         -0.00000002	          0.00000000	         -0.00000001	          0.00000000	         -0.37770828	          0.00000000	          0.00000000	         -0.00000004	          0.00000000	
          1.69000000	         63.44686620	        666.95660621	         48.08042454	         -0.29146067	          0.00000000	         -0.08160857	         -0.00000236	         -0.00000175	         -0.00000375	          0.00000009	          0.00000000	          0.00000004	          0.00000000	         -0.41572775	          0.00000000	          0.00000000	          0.00000006	          0.00000000	
